<mxfile host="app.diagrams.net" modified="2021-09-27T15:51:17.442Z" agent="5.0 (Windows)" etag="qqPqJK18shDV1ZE__FAB" version="15.2.9" type="github">
  <diagram id="Z8IkhGXOmtMKK-Ey6uu2" name="Page-1">
    <mxGraphModel dx="1185" dy="627" grid="1" gridSize="10" guides="1" tooltips="1" connect="1" arrows="1" fold="1" page="1" pageScale="1" pageWidth="1169" pageHeight="827" math="0" shadow="0">
      <root>
        <mxCell id="0" />
        <mxCell id="1" parent="0" />
        <mxCell id="P2Td-0ABsb0LaM1drJ_Q-24" style="edgeStyle=orthogonalEdgeStyle;rounded=0;orthogonalLoop=1;jettySize=auto;html=1;exitX=0;exitY=0.3333333333333333;exitDx=0;exitDy=0;exitPerimeter=0;entryX=0.5;entryY=0;entryDx=0;entryDy=0;entryPerimeter=0;" edge="1" parent="1" source="P2Td-0ABsb0LaM1drJ_Q-1" target="P2Td-0ABsb0LaM1drJ_Q-2">
          <mxGeometry relative="1" as="geometry" />
        </mxCell>
        <mxCell id="P2Td-0ABsb0LaM1drJ_Q-25" style="edgeStyle=orthogonalEdgeStyle;rounded=0;orthogonalLoop=1;jettySize=auto;html=1;exitX=1;exitY=0.3333333333333333;exitDx=0;exitDy=0;exitPerimeter=0;entryX=0.5;entryY=0;entryDx=0;entryDy=0;entryPerimeter=0;" edge="1" parent="1" source="P2Td-0ABsb0LaM1drJ_Q-1" target="P2Td-0ABsb0LaM1drJ_Q-3">
          <mxGeometry relative="1" as="geometry" />
        </mxCell>
        <mxCell id="P2Td-0ABsb0LaM1drJ_Q-1" value="&lt;div&gt;Utilisateur&lt;/div&gt;" style="shape=umlActor;verticalLabelPosition=bottom;verticalAlign=top;html=1;outlineConnect=0;" vertex="1" parent="1">
          <mxGeometry x="650" y="30" width="30" height="60" as="geometry" />
        </mxCell>
        <mxCell id="P2Td-0ABsb0LaM1drJ_Q-2" value="Bénévole" style="shape=umlActor;verticalLabelPosition=bottom;verticalAlign=top;html=1;outlineConnect=0;" vertex="1" parent="1">
          <mxGeometry x="450" y="140" width="30" height="60" as="geometry" />
        </mxCell>
        <mxCell id="P2Td-0ABsb0LaM1drJ_Q-3" value="Elève" style="shape=umlActor;verticalLabelPosition=bottom;verticalAlign=top;html=1;outlineConnect=0;" vertex="1" parent="1">
          <mxGeometry x="840" y="140" width="30" height="60" as="geometry" />
        </mxCell>
        <mxCell id="P2Td-0ABsb0LaM1drJ_Q-7" value="Se connecter au site" style="swimlane;" vertex="1" parent="1">
          <mxGeometry x="40" y="350" width="170" height="100" as="geometry">
            <mxRectangle x="40" y="350" width="150" height="23" as="alternateBounds" />
          </mxGeometry>
        </mxCell>
        <mxCell id="P2Td-0ABsb0LaM1drJ_Q-8" value="&lt;div&gt;-&lt;span style=&quot;white-space: pre&quot;&gt;&lt;span style=&quot;white-space: pre&quot;&gt;	&lt;/span&gt;Mot de passe oublier&lt;/span&gt;&lt;/div&gt;&lt;div&gt;&lt;span style=&quot;white-space: pre&quot;&gt;-&lt;span style=&quot;white-space: pre&quot;&gt;	&lt;/span&gt;Créer un compte       &lt;br&gt;&lt;/span&gt;&lt;/div&gt;" style="text;html=1;strokeColor=none;fillColor=none;align=center;verticalAlign=middle;whiteSpace=wrap;rounded=0;" vertex="1" parent="P2Td-0ABsb0LaM1drJ_Q-7">
          <mxGeometry y="20" width="170" height="80" as="geometry" />
        </mxCell>
        <mxCell id="P2Td-0ABsb0LaM1drJ_Q-9" value="Réinitialiser un mot de passe" style="rounded=0;whiteSpace=wrap;html=1;" vertex="1" parent="1">
          <mxGeometry y="540" width="120" height="60" as="geometry" />
        </mxCell>
        <mxCell id="P2Td-0ABsb0LaM1drJ_Q-10" value="Demander a créer un compte" style="rounded=0;whiteSpace=wrap;html=1;" vertex="1" parent="1">
          <mxGeometry x="130" y="540" width="120" height="60" as="geometry" />
        </mxCell>
        <mxCell id="P2Td-0ABsb0LaM1drJ_Q-11" value="" style="endArrow=none;dashed=1;html=1;dashPattern=1 3;strokeWidth=2;exitX=0.347;exitY=-0.061;exitDx=0;exitDy=0;exitPerimeter=0;entryX=0.25;entryY=1;entryDx=0;entryDy=0;" edge="1" parent="1" source="P2Td-0ABsb0LaM1drJ_Q-9" target="P2Td-0ABsb0LaM1drJ_Q-8">
          <mxGeometry width="50" height="50" relative="1" as="geometry">
            <mxPoint x="40" y="520" as="sourcePoint" />
            <mxPoint x="90" y="460" as="targetPoint" />
          </mxGeometry>
        </mxCell>
        <mxCell id="P2Td-0ABsb0LaM1drJ_Q-12" value="Extend" style="edgeLabel;html=1;align=center;verticalAlign=middle;resizable=0;points=[];" vertex="1" connectable="0" parent="P2Td-0ABsb0LaM1drJ_Q-11">
          <mxGeometry x="0.32" y="1" relative="1" as="geometry">
            <mxPoint as="offset" />
          </mxGeometry>
        </mxCell>
        <mxCell id="P2Td-0ABsb0LaM1drJ_Q-13" value="" style="endArrow=none;dashed=1;html=1;dashPattern=1 3;strokeWidth=2;exitX=0.347;exitY=-0.061;exitDx=0;exitDy=0;exitPerimeter=0;entryX=0.75;entryY=1;entryDx=0;entryDy=0;" edge="1" parent="1" target="P2Td-0ABsb0LaM1drJ_Q-8">
          <mxGeometry width="50" height="50" relative="1" as="geometry">
            <mxPoint x="190.0000000000001" y="539.9999999999999" as="sourcePoint" />
            <mxPoint x="230.86" y="453.66" as="targetPoint" />
          </mxGeometry>
        </mxCell>
        <mxCell id="P2Td-0ABsb0LaM1drJ_Q-14" value="Extend" style="edgeLabel;html=1;align=center;verticalAlign=middle;resizable=0;points=[];" vertex="1" connectable="0" parent="P2Td-0ABsb0LaM1drJ_Q-13">
          <mxGeometry x="0.32" y="1" relative="1" as="geometry">
            <mxPoint as="offset" />
          </mxGeometry>
        </mxCell>
        <mxCell id="P2Td-0ABsb0LaM1drJ_Q-15" value="&lt;div&gt;Disctuter&lt;/div&gt;" style="rounded=0;whiteSpace=wrap;html=1;" vertex="1" parent="1">
          <mxGeometry x="250" y="360" width="120" height="60" as="geometry" />
        </mxCell>
        <mxCell id="P2Td-0ABsb0LaM1drJ_Q-16" value="Gérer son emploi du temps" style="swimlane;" vertex="1" parent="1">
          <mxGeometry x="400" y="360" width="200" height="200" as="geometry" />
        </mxCell>
        <mxCell id="P2Td-0ABsb0LaM1drJ_Q-21" value="Text" style="text;html=1;strokeColor=none;fillColor=none;align=center;verticalAlign=middle;whiteSpace=wrap;rounded=0;" vertex="1" parent="P2Td-0ABsb0LaM1drJ_Q-16">
          <mxGeometry x="14" y="40" width="40" height="20" as="geometry" />
        </mxCell>
        <mxCell id="P2Td-0ABsb0LaM1drJ_Q-18" value="Gérer ses tâches" style="swimlane;" vertex="1" parent="1">
          <mxGeometry x="270" y="610" width="200" height="200" as="geometry" />
        </mxCell>
        <mxCell id="P2Td-0ABsb0LaM1drJ_Q-19" value="Gérer les tâches d&#39;autrui" style="swimlane;" vertex="1" parent="1">
          <mxGeometry x="520" y="610" width="200" height="200" as="geometry" />
        </mxCell>
      </root>
    </mxGraphModel>
  </diagram>
</mxfile>
